# Blender v2.90.1 OBJ File: 'FieldV4.blend'
# www.blender.org
mtllib BeehiveLine.mtl
o BeehiveLine_mesh819
v 1.668780 0.000000 0.000000
v 0.000000 0.000000 -1.668779
v 1.744980 0.000000 0.000000
v 0.000000 0.000001 -1.744979
v 1.668780 -0.071921 0.000000
v 0.000000 -0.071920 -1.668779
v 1.744980 -0.071921 0.000000
v 0.000000 -0.071920 -1.744979
vn 0.0000 1.0000 0.0000
vn 0.0000 -1.0000 -0.0000
vn -1.0000 0.0000 0.0000
vn 0.0000 -0.0000 1.0000
vn -0.7071 0.0000 0.7071
vn 0.7071 -0.0000 -0.7071
usemtl 1.000000_0.000000_0.000000_0.000000_0.000000
s off
f 4//1 1//1 3//1
f 1//1 4//1 2//1
f 8//2 7//2 5//2
f 5//2 6//2 8//2
f 2//3 4//3 8//3 6//3
f 3//4 1//4 5//4 7//4
f 1//5 2//5 6//5 5//5
f 4//6 3//6 7//6 8//6
