# Blender v2.90.1 OBJ File: 'FieldV4.blend'
# www.blender.org
mtllib ChainPost.mtl
o ChainPost_mesh168
v 0.076200 0.381000 0.076200
v 0.076201 0.304821 0.000053
v 0.076200 0.000000 -0.076200
v 0.076200 0.000000 0.076200
v -0.076200 0.381000 -0.076200
v -0.076200 0.000000 -0.076200
v -0.076200 0.000000 0.076200
v -0.076200 0.381000 0.076200
v 0.076200 0.381000 -0.076200
v 0.156307 0.325951 -0.000078
v 0.155905 0.325951 0.001422
v 0.154807 0.325951 0.002521
v 0.153307 0.325951 0.002922
v 0.151807 0.325951 0.002521
v 0.150708 0.325951 0.001422
v 0.150307 0.325951 -0.000078
v 0.150708 0.325951 -0.001578
v 0.151807 0.325951 -0.002676
v 0.153307 0.325951 -0.003078
v 0.154807 0.325951 -0.002676
v 0.155905 0.325951 -0.001578
v 0.155182 0.334493 -0.000078
v 0.154794 0.334388 0.001422
v 0.153733 0.334104 0.002521
v 0.152285 0.333716 0.002922
v 0.150836 0.333328 0.002521
v 0.149775 0.333044 0.001422
v 0.149387 0.332940 -0.000078
v 0.149775 0.333044 -0.001578
v 0.150836 0.333328 -0.002676
v 0.152285 0.333716 -0.003078
v 0.153733 0.334104 -0.002676
v 0.154794 0.334388 -0.001578
v 0.151886 0.342451 -0.000078
v 0.151537 0.342250 0.001422
v 0.150587 0.341702 0.002521
v 0.149288 0.340951 0.002922
v 0.147988 0.340202 0.002521
v 0.147038 0.339652 0.001422
v 0.146689 0.339451 -0.000078
v 0.147038 0.339652 -0.001578
v 0.147988 0.340202 -0.002676
v 0.149288 0.340951 -0.003078
v 0.150587 0.341702 -0.002676
v 0.151537 0.342250 -0.001578
v 0.146641 0.349286 -0.000078
v 0.146357 0.349002 0.001422
v 0.145581 0.348225 0.002521
v 0.144520 0.347165 0.002922
v 0.143459 0.346104 0.002521
v 0.142683 0.345328 0.001422
v 0.142398 0.345043 -0.000078
v 0.142683 0.345328 -0.001578
v 0.143459 0.346104 -0.002676
v 0.144520 0.347165 -0.003078
v 0.145581 0.348225 -0.002676
v 0.146357 0.349002 -0.001578
v 0.139807 0.354530 -0.000078
v 0.139606 0.354182 0.001422
v 0.139057 0.353231 0.002521
v 0.138307 0.351932 0.002922
v 0.137557 0.350633 0.002521
v 0.137008 0.349682 0.001422
v 0.136807 0.349334 -0.000078
v 0.137008 0.349682 -0.001578
v 0.137557 0.350633 -0.002676
v 0.138307 0.351932 -0.003078
v 0.139057 0.353231 -0.002676
v 0.139606 0.354182 -0.001578
v 0.099972 0.302617 -0.000078
v 0.100257 0.302901 0.001422
v 0.101033 0.303677 0.002521
v 0.102093 0.304738 0.002922
v 0.103154 0.305799 0.002521
v 0.103931 0.306575 0.001422
v 0.104215 0.306860 -0.000078
v 0.103931 0.306575 -0.001578
v 0.103154 0.305799 -0.002676
v 0.102093 0.304738 -0.003078
v 0.101033 0.303677 -0.002676
v 0.100257 0.302901 -0.001578
v 0.106807 0.297373 -0.000078
v 0.107008 0.297721 0.001422
v 0.107557 0.298672 0.002521
v 0.108307 0.299971 0.002922
v 0.109057 0.301270 0.002521
v 0.109606 0.302221 0.001422
v 0.109807 0.302569 -0.000078
v 0.109606 0.302221 -0.001578
v 0.109057 0.301270 -0.002676
v 0.108307 0.299971 -0.003078
v 0.107557 0.298672 -0.002676
v 0.107008 0.297721 -0.001578
v 0.114766 0.294076 -0.000078
v 0.114870 0.294464 0.001422
v 0.115154 0.295525 0.002521
v 0.115542 0.296974 0.002922
v 0.115930 0.298422 0.002521
v 0.116215 0.299483 0.001422
v 0.116318 0.299871 -0.000078
v 0.116215 0.299483 -0.001578
v 0.115930 0.298422 -0.002676
v 0.115542 0.296974 -0.003078
v 0.115154 0.295525 -0.002676
v 0.114870 0.294464 -0.001578
v 0.123307 0.292951 -0.000078
v 0.123307 0.293353 0.001422
v 0.123307 0.294451 0.002521
v 0.123307 0.295951 0.002922
v 0.123307 0.297451 0.002521
v 0.123307 0.298549 0.001422
v 0.123307 0.298951 -0.000078
v 0.123307 0.298549 -0.001578
v 0.123307 0.297451 -0.002676
v 0.123307 0.295951 -0.003078
v 0.123307 0.294451 -0.002676
v 0.123307 0.293353 -0.001578
v 0.131848 0.294076 -0.000078
v 0.131744 0.294464 0.001422
v 0.131460 0.295525 0.002521
v 0.131071 0.296974 0.002922
v 0.130683 0.298422 0.002521
v 0.130399 0.299483 0.001422
v 0.130295 0.299871 -0.000078
v 0.130399 0.299483 -0.001578
v 0.130683 0.298422 -0.002676
v 0.131071 0.296974 -0.003078
v 0.131460 0.295525 -0.002676
v 0.131744 0.294464 -0.001578
v 0.139807 0.297373 -0.000078
v 0.139606 0.297721 0.001422
v 0.139057 0.298672 0.002521
v 0.138307 0.299971 0.002922
v 0.137557 0.301270 0.002521
v 0.137008 0.302221 0.001422
v 0.136807 0.302569 -0.000078
v 0.137008 0.302221 -0.001578
v 0.137557 0.301270 -0.002676
v 0.138307 0.299971 -0.003078
v 0.139057 0.298672 -0.002676
v 0.139606 0.297721 -0.001578
v 0.146641 0.302617 -0.000078
v 0.146357 0.302901 0.001422
v 0.145581 0.303677 0.002521
v 0.144520 0.304738 0.002922
v 0.143459 0.305799 0.002521
v 0.142683 0.306575 0.001422
v 0.142398 0.306859 -0.000078
v 0.142683 0.306575 -0.001578
v 0.143459 0.305799 -0.002676
v 0.144520 0.304738 -0.003078
v 0.145581 0.303677 -0.002676
v 0.146357 0.302901 -0.001578
v 0.151886 0.309451 -0.000078
v 0.151537 0.309652 0.001422
v 0.150587 0.310201 0.002521
v 0.149288 0.310951 0.002922
v 0.147988 0.311701 0.002521
v 0.147038 0.312250 0.001422
v 0.146689 0.312451 -0.000078
v 0.147038 0.312250 -0.001578
v 0.147988 0.311701 -0.002676
v 0.149288 0.310951 -0.003078
v 0.150587 0.310201 -0.002676
v 0.151537 0.309652 -0.001578
v 0.155182 0.317410 -0.000078
v 0.154794 0.317514 0.001422
v 0.153733 0.317799 0.002521
v 0.152285 0.318187 0.002922
v 0.150836 0.318575 0.002521
v 0.149775 0.318859 0.001422
v 0.149387 0.318963 -0.000078
v 0.149775 0.318859 -0.001578
v 0.150836 0.318575 -0.002676
v 0.152285 0.318187 -0.003078
v 0.153733 0.317799 -0.002676
v 0.154794 0.317514 -0.001578
v 0.074512 0.302617 -0.000078
v 0.074512 0.302901 0.001422
v 0.074512 0.303677 0.002521
v 0.074512 0.304738 0.002922
v 0.074512 0.305799 0.002521
v 0.074512 0.306575 0.001422
v 0.074512 0.306860 -0.000078
v 0.074512 0.306575 -0.001578
v 0.074512 0.305799 -0.002676
v 0.074512 0.304738 -0.003078
v 0.074512 0.303677 -0.002676
v 0.074512 0.302901 -0.001578
vt 0.000000 0.000000
vt 0.000000 0.000000
vt 0.000000 0.000000
vt 0.000000 0.000000
vt 0.000000 0.000000
vt 0.000000 0.000000
vt 0.000000 0.000000
vt 0.000000 0.000000
vt 0.000000 0.000000
vt 0.500000 0.500000
vt 0.541667 0.500000
vt 0.541667 0.583333
vt 0.500000 0.583333
vt 0.541667 0.666667
vt 0.500000 0.666667
vt 0.541667 0.750000
vt 0.500000 0.750000
vt 0.541667 0.833333
vt 0.500000 0.833333
vt 0.541667 0.916667
vt 0.500000 0.916667
vt 0.541667 1.000000
vt 0.500000 1.000000
vt 0.500000 0.000000
vt 0.541667 0.000000
vt 0.541667 0.083333
vt 0.500000 0.083333
vt 0.541667 0.166667
vt 0.500000 0.166667
vt 0.541667 0.250000
vt 0.500000 0.250000
vt 0.541667 0.333333
vt 0.500000 0.333333
vt 0.541667 0.416667
vt 0.500000 0.416667
vt 0.583333 0.500000
vt 0.583333 0.583333
vt 0.583333 0.666667
vt 0.583333 0.750000
vt 0.583333 0.833333
vt 0.583333 0.916667
vt 0.583333 1.000000
vt 0.583333 0.000000
vt 0.583333 0.083333
vt 0.583333 0.166667
vt 0.583333 0.250000
vt 0.583333 0.333333
vt 0.583333 0.416667
vt 0.625000 0.500000
vt 0.625000 0.583333
vt 0.625000 0.666667
vt 0.625000 0.750000
vt 0.625000 0.833333
vt 0.625000 0.916667
vt 0.625000 1.000000
vt 0.625000 0.000000
vt 0.625000 0.083333
vt 0.625000 0.166667
vt 0.625000 0.250000
vt 0.625000 0.333333
vt 0.625000 0.416667
vt 0.666667 0.500000
vt 0.666667 0.583333
vt 0.666667 0.666667
vt 0.666667 0.750000
vt 0.666667 0.833333
vt 0.666667 0.916667
vt 0.666667 1.000000
vt 0.666667 0.000000
vt 0.666667 0.083333
vt 0.666667 0.166667
vt 0.666667 0.250000
vt 0.666667 0.333333
vt 0.666667 0.416667
vt 0.125000 0.500000
vt 0.166667 0.500000
vt 0.166667 0.583333
vt 0.125000 0.583333
vt 0.166667 0.666667
vt 0.125000 0.666667
vt 0.166667 0.750000
vt 0.125000 0.750000
vt 0.166667 0.833333
vt 0.125000 0.833333
vt 0.166667 0.916667
vt 0.125000 0.916667
vt 0.166667 1.000000
vt 0.125000 1.000000
vt 0.125000 0.000000
vt 0.166667 0.000000
vt 0.166667 0.083333
vt 0.125000 0.083333
vt 0.166667 0.166667
vt 0.125000 0.166667
vt 0.166667 0.250000
vt 0.125000 0.250000
vt 0.166667 0.333333
vt 0.125000 0.333333
vt 0.166667 0.416667
vt 0.125000 0.416667
vt 0.208333 0.500000
vt 0.208333 0.583333
vt 0.208333 0.666667
vt 0.208333 0.750000
vt 0.208333 0.833333
vt 0.208333 0.916667
vt 0.208333 1.000000
vt 0.208333 0.000000
vt 0.208333 0.083333
vt 0.208333 0.166667
vt 0.208333 0.250000
vt 0.208333 0.333333
vt 0.208333 0.416667
vt 0.250000 0.500000
vt 0.250000 0.583333
vt 0.250000 0.666667
vt 0.250000 0.750000
vt 0.250000 0.833333
vt 0.250000 0.916667
vt 0.250000 1.000000
vt 0.250000 0.000000
vt 0.250000 0.083333
vt 0.250000 0.166667
vt 0.250000 0.250000
vt 0.250000 0.333333
vt 0.250000 0.416667
vt 0.291667 0.500000
vt 0.291667 0.583333
vt 0.291667 0.666667
vt 0.291667 0.750000
vt 0.291667 0.833333
vt 0.291667 0.916667
vt 0.291667 1.000000
vt 0.291667 0.000000
vt 0.291667 0.083333
vt 0.291667 0.166667
vt 0.291667 0.250000
vt 0.291667 0.333333
vt 0.291667 0.416667
vt 0.333333 0.500000
vt 0.333333 0.583333
vt 0.333333 0.666667
vt 0.333333 0.750000
vt 0.333333 0.833333
vt 0.333333 0.916667
vt 0.333333 1.000000
vt 0.333333 0.000000
vt 0.333333 0.083333
vt 0.333333 0.166667
vt 0.333333 0.250000
vt 0.333333 0.333333
vt 0.333333 0.416667
vt 0.375000 0.500000
vt 0.375000 0.583333
vt 0.375000 0.666667
vt 0.375000 0.750000
vt 0.375000 0.833333
vt 0.375000 0.916667
vt 0.375000 1.000000
vt 0.375000 0.000000
vt 0.375000 0.083333
vt 0.375000 0.166667
vt 0.375000 0.250000
vt 0.375000 0.333333
vt 0.375000 0.416667
vt 0.416667 0.500000
vt 0.416667 0.583333
vt 0.416667 0.666667
vt 0.416667 0.750000
vt 0.416667 0.833333
vt 0.416667 0.916667
vt 0.416667 1.000000
vt 0.416667 0.000000
vt 0.416667 0.083333
vt 0.416667 0.166667
vt 0.416667 0.250000
vt 0.416667 0.333333
vt 0.416667 0.416667
vt 0.458333 0.500000
vt 0.458333 0.583333
vt 0.458333 0.666667
vt 0.458333 0.750000
vt 0.458333 0.833333
vt 0.458333 0.916667
vt 0.458333 1.000000
vt 0.458333 0.000000
vt 0.458333 0.083333
vt 0.458333 0.166667
vt 0.458333 0.250000
vt 0.458333 0.333333
vt 0.458333 0.416667
vt 0.125000 0.916667
vt 0.125000 0.833333
vt 0.125000 0.500000
vt 0.125000 0.416667
vt 0.125000 0.666667
vt 0.125000 0.583333
vt 0.125000 0.250000
vt 0.125000 0.166667
vt 0.125000 1.000000
vt 0.125000 0.750000
vt 0.125000 0.333333
vt 0.125000 0.083333
vt 0.125000 0.000000
vn 0.0000 -1.0000 -0.0000
vn 1.0000 0.0000 0.0000
vn 0.0000 -0.0000 1.0000
vn -1.0000 0.0000 0.0000
vn 0.0000 0.0000 -1.0000
vn 0.0000 1.0000 0.0000
vn 0.9659 0.2588 0.0000
vn 0.8415 0.2255 0.4909
vn 0.8712 -0.0000 0.4909
vn 0.4983 0.1335 0.8567
vn 0.5158 0.0000 0.8567
vn 0.0208 0.0056 0.9998
vn 0.0216 0.0000 0.9998
vn -0.4670 -0.1251 0.8754
vn -0.4835 0.0000 0.8754
vn -0.8311 -0.2227 0.5095
vn -0.8605 0.0000 0.5095
vn -0.9659 -0.2588 -0.0000
vn -0.8311 -0.2227 -0.5095
vn -0.8605 0.0000 -0.5095
vn -0.4670 -0.1251 -0.8753
vn -0.4835 -0.0000 -0.8754
vn 0.0209 0.0056 -0.9998
vn 0.0216 -0.0000 -0.9998
vn 0.4983 0.1335 -0.8567
vn 0.5158 0.0000 -0.8567
vn 0.8415 0.2255 -0.4909
vn 0.8712 -0.0000 -0.4909
vn 0.8660 0.5000 0.0000
vn 0.7545 0.4356 0.4909
vn 0.4467 0.2579 0.8567
vn 0.0187 0.0108 0.9998
vn -0.4187 -0.2417 0.8754
vn -0.7452 -0.4302 0.5096
vn -0.8660 -0.5000 -0.0000
vn -0.7452 -0.4302 -0.5096
vn -0.4187 -0.2418 -0.8753
vn 0.0187 0.0108 -0.9998
vn 0.4468 0.2579 -0.8567
vn 0.7545 0.4356 -0.4909
vn 0.7071 0.7071 -0.0000
vn 0.6160 0.6160 0.4909
vn 0.3648 0.3648 0.8567
vn 0.0152 0.0152 0.9998
vn -0.3419 -0.3419 0.8754
vn -0.6084 -0.6084 0.5096
vn -0.7071 -0.7071 -0.0000
vn -0.6084 -0.6084 -0.5096
vn -0.3419 -0.3419 -0.8754
vn 0.0152 0.0152 -0.9998
vn 0.3648 0.3648 -0.8567
vn 0.6160 0.6160 -0.4909
vn 0.6088 0.7934 -0.0000
vn 0.5315 0.6926 0.4877
vn 0.3160 0.4118 0.8547
vn 0.0132 0.0172 0.9998
vn -0.2962 -0.3861 0.8736
vn -0.5250 -0.6841 0.5064
vn -0.6088 -0.7933 0.0000
vn -0.5250 -0.6841 -0.5064
vn -0.2963 -0.3861 -0.8736
vn 0.0132 0.0172 -0.9998
vn 0.3160 0.4118 -0.8547
vn 0.5315 0.6926 -0.4877
vn -0.2974 -0.9547 -0.0000
vn -0.5000 -0.8660 -0.0000
vn -0.4356 -0.7545 0.4909
vn -0.2589 -0.8397 0.4774
vn -0.2579 -0.4467 0.8567
vn -0.1540 -0.4732 0.8674
vn -0.0108 -0.0187 0.9998
vn -0.0067 0.0802 0.9968
vn 0.2417 0.4187 0.8753
vn 0.1591 0.5575 0.8148
vn 0.4302 0.7452 0.5096
vn 0.2920 0.8444 0.4491
vn 0.5000 0.8660 -0.0000
vn 0.3421 0.9396 0.0000
vn 0.4302 0.7452 -0.5096
vn 0.2920 0.8444 -0.4491
vn 0.2417 0.4187 -0.8754
vn 0.1591 0.5575 -0.8148
vn -0.0108 -0.0187 -0.9998
vn -0.0067 0.0802 -0.9968
vn -0.2579 -0.4467 -0.8567
vn -0.1540 -0.4732 -0.8674
vn -0.4356 -0.7545 -0.4909
vn -0.2589 -0.8397 -0.4774
vn -0.2588 -0.9659 0.0000
vn -0.2255 -0.8415 0.4909
vn -0.1335 -0.4983 0.8567
vn -0.0056 -0.0208 0.9998
vn 0.1251 0.4670 0.8753
vn 0.2227 0.8311 0.5095
vn 0.2588 0.9659 -0.0000
vn 0.2227 0.8311 -0.5095
vn 0.1251 0.4670 -0.8754
vn -0.0056 -0.0208 -0.9998
vn -0.1335 -0.4983 -0.8567
vn -0.2255 -0.8415 -0.4909
vn 0.0000 -0.8712 0.4909
vn -0.0000 -0.5158 0.8567
vn 0.0000 -0.0216 0.9998
vn 0.0000 0.4835 0.8753
vn 0.0000 0.8604 0.5096
vn 0.0000 0.8604 -0.5096
vn 0.0000 0.4835 -0.8754
vn 0.0000 -0.0216 -0.9998
vn 0.0000 -0.5158 -0.8567
vn 0.0000 -0.8712 -0.4909
vn 0.2588 -0.9659 -0.0000
vn 0.2255 -0.8415 0.4909
vn 0.1335 -0.4983 0.8567
vn 0.0056 -0.0208 0.9998
vn -0.1251 0.4670 0.8753
vn -0.2227 0.8311 0.5095
vn -0.2588 0.9659 0.0000
vn -0.2227 0.8311 -0.5095
vn -0.1251 0.4670 -0.8754
vn 0.0056 -0.0208 -0.9998
vn 0.1335 -0.4983 -0.8567
vn 0.2255 -0.8415 -0.4909
vn 0.5000 -0.8660 0.0000
vn 0.4356 -0.7545 0.4909
vn 0.2579 -0.4467 0.8567
vn 0.0108 -0.0187 0.9998
vn -0.2417 0.4187 0.8753
vn -0.4302 0.7452 0.5095
vn -0.5000 0.8660 -0.0000
vn -0.4302 0.7452 -0.5095
vn -0.2417 0.4187 -0.8754
vn 0.0108 -0.0187 -0.9998
vn 0.2579 -0.4467 -0.8567
vn 0.4356 -0.7545 -0.4909
vn 0.7071 -0.7071 0.0000
vn 0.6160 -0.6160 0.4909
vn 0.3648 -0.3648 0.8567
vn 0.0152 -0.0152 0.9998
vn -0.3419 0.3419 0.8754
vn -0.6084 0.6084 0.5096
vn -0.7071 0.7071 0.0000
vn -0.6084 0.6084 -0.5096
vn -0.3419 0.3419 -0.8754
vn 0.0152 -0.0152 -0.9998
vn 0.3648 -0.3648 -0.8567
vn 0.6160 -0.6160 -0.4909
vn 0.8660 -0.5000 -0.0000
vn 0.7545 -0.4356 0.4909
vn 0.4468 -0.2579 0.8567
vn 0.0187 -0.0108 0.9998
vn -0.4187 0.2417 0.8753
vn -0.7452 0.4302 0.5096
vn -0.8660 0.5000 0.0000
vn -0.7452 0.4302 -0.5096
vn -0.4187 0.2417 -0.8754
vn 0.0187 -0.0108 -0.9998
vn 0.4467 -0.2579 -0.8567
vn 0.7545 -0.4356 -0.4909
vn 0.9659 -0.2588 0.0000
vn 0.8415 -0.2255 0.4909
vn 0.4983 -0.1335 0.8567
vn 0.0209 -0.0056 0.9998
vn -0.4670 0.1251 0.8753
vn -0.8311 0.2227 0.5095
vn -0.9659 0.2588 -0.0000
vn -0.8311 0.2227 -0.5095
vn -0.4670 0.1251 -0.8754
vn 0.0208 -0.0056 -0.9998
vn 0.4983 -0.1335 -0.8567
vn 0.8415 -0.2255 -0.4909
vn 0.0000 0.9205 0.3907
vn 0.0000 0.6122 0.7907
vn 0.0000 -0.9205 -0.3907
vn 0.0000 -0.6121 0.7907
vn 0.0000 -0.9205 0.3907
vn 0.0000 0.6121 -0.7907
vn 0.0000 -0.6121 -0.7908
vn 0.0000 0.9205 -0.3907
usemtl 1.000000_0.000000_0.000000_0.000000_0.000000
s 1
f 3/1/1 4/2/1 7/3/1
f 7/3/1 6/4/1 3/1/1
f 2/5/2 9/6/2 1/7/2
f 2/5/2 4/2/2 3/1/2
f 2/5/2 1/7/2 4/2/2
f 2/5/2 3/1/2 9/6/2
f 8/8/3 7/3/3 4/2/3
f 4/2/3 1/7/3 8/8/3
f 5/9/4 6/4/4 7/3/4
f 7/3/4 8/8/4 5/9/4
f 9/6/5 3/1/5 6/4/5
f 6/4/5 5/9/5 9/6/5
f 5/9/6 8/8/6 1/7/6
f 1/7/6 9/6/6 5/9/6
f 10/10/2 22/11/7 23/12/8 11/13/9
f 11/13/9 23/12/8 24/14/10 12/15/11
f 12/15/11 24/14/10 25/16/12 13/17/13
f 13/17/13 25/16/12 26/18/14 14/19/15
f 14/19/15 26/18/14 27/20/16 15/21/17
f 15/21/17 27/20/16 28/22/18 16/23/4
f 16/24/4 28/25/18 29/26/19 17/27/20
f 17/27/20 29/26/19 30/28/21 18/29/22
f 18/29/22 30/28/21 31/30/23 19/31/24
f 19/31/24 31/30/23 32/32/25 20/33/26
f 20/33/26 32/32/25 33/34/27 21/35/28
f 21/35/28 33/34/27 22/11/7 10/10/2
f 22/11/7 34/36/29 35/37/30 23/12/8
f 23/12/8 35/37/30 36/38/31 24/14/10
f 24/14/10 36/38/31 37/39/32 25/16/12
f 25/16/12 37/39/32 38/40/33 26/18/14
f 26/18/14 38/40/33 39/41/34 27/20/16
f 27/20/16 39/41/34 40/42/35 28/22/18
f 28/25/18 40/43/35 41/44/36 29/26/19
f 29/26/19 41/44/36 42/45/37 30/28/21
f 30/28/21 42/45/37 43/46/38 31/30/23
f 31/30/23 43/46/38 44/47/39 32/32/25
f 32/32/25 44/47/39 45/48/40 33/34/27
f 33/34/27 45/48/40 34/36/29 22/11/7
f 34/36/29 46/49/41 47/50/42 35/37/30
f 35/37/30 47/50/42 48/51/43 36/38/31
f 36/38/31 48/51/43 49/52/44 37/39/32
f 37/39/32 49/52/44 50/53/45 38/40/33
f 38/40/33 50/53/45 51/54/46 39/41/34
f 39/41/34 51/54/46 52/55/47 40/42/35
f 40/43/35 52/56/47 53/57/48 41/44/36
f 41/44/36 53/57/48 54/58/49 42/45/37
f 42/45/37 54/58/49 55/59/50 43/46/38
f 43/46/38 55/59/50 56/60/51 44/47/39
f 44/47/39 56/60/51 57/61/52 45/48/40
f 45/48/40 57/61/52 46/49/41 34/36/29
f 46/49/41 58/62/53 59/63/54 47/50/42
f 47/50/42 59/63/54 60/64/55 48/51/43
f 48/51/43 60/64/55 61/65/56 49/52/44
f 49/52/44 61/65/56 62/66/57 50/53/45
f 50/53/45 62/66/57 63/67/58 51/54/46
f 51/54/46 63/67/58 64/68/59 52/55/47
f 52/56/47 64/69/59 65/70/60 53/57/48
f 53/57/48 65/70/60 66/71/61 54/58/49
f 54/58/49 66/71/61 67/72/62 55/59/50
f 55/59/50 67/72/62 68/73/63 56/60/51
f 56/60/51 68/73/63 69/74/64 57/61/52
f 57/61/52 69/74/64 58/62/53 46/49/41
f 70/75/65 82/76/66 83/77/67 71/78/68
f 71/78/68 83/77/67 84/79/69 72/80/70
f 72/80/70 84/79/69 85/81/71 73/82/72
f 73/82/72 85/81/71 86/83/73 74/84/74
f 74/84/74 86/83/73 87/85/75 75/86/76
f 75/86/76 87/85/75 88/87/77 76/88/78
f 76/89/78 88/90/77 89/91/79 77/92/80
f 77/92/80 89/91/79 90/93/81 78/94/82
f 78/94/82 90/93/81 91/95/83 79/96/84
f 79/96/84 91/95/83 92/97/85 80/98/86
f 80/98/86 92/97/85 93/99/87 81/100/88
f 81/100/88 93/99/87 82/76/66 70/75/65
f 82/76/66 94/101/89 95/102/90 83/77/67
f 83/77/67 95/102/90 96/103/91 84/79/69
f 84/79/69 96/103/91 97/104/92 85/81/71
f 85/81/71 97/104/92 98/105/93 86/83/73
f 86/83/73 98/105/93 99/106/94 87/85/75
f 87/85/75 99/106/94 100/107/95 88/87/77
f 88/90/77 100/108/95 101/109/96 89/91/79
f 89/91/79 101/109/96 102/110/97 90/93/81
f 90/93/81 102/110/97 103/111/98 91/95/83
f 91/95/83 103/111/98 104/112/99 92/97/85
f 92/97/85 104/112/99 105/113/100 93/99/87
f 93/99/87 105/113/100 94/101/89 82/76/66
f 94/101/89 106/114/1 107/115/101 95/102/90
f 95/102/90 107/115/101 108/116/102 96/103/91
f 96/103/91 108/116/102 109/117/103 97/104/92
f 97/104/92 109/117/103 110/118/104 98/105/93
f 98/105/93 110/118/104 111/119/105 99/106/94
f 99/106/94 111/119/105 112/120/6 100/107/95
f 100/108/95 112/121/6 113/122/106 101/109/96
f 101/109/96 113/122/106 114/123/107 102/110/97
f 102/110/97 114/123/107 115/124/108 103/111/98
f 103/111/98 115/124/108 116/125/109 104/112/99
f 104/112/99 116/125/109 117/126/110 105/113/100
f 105/113/100 117/126/110 106/114/1 94/101/89
f 106/114/1 118/127/111 119/128/112 107/115/101
f 107/115/101 119/128/112 120/129/113 108/116/102
f 108/116/102 120/129/113 121/130/114 109/117/103
f 109/117/103 121/130/114 122/131/115 110/118/104
f 110/118/104 122/131/115 123/132/116 111/119/105
f 111/119/105 123/132/116 124/133/117 112/120/6
f 112/121/6 124/134/117 125/135/118 113/122/106
f 113/122/106 125/135/118 126/136/119 114/123/107
f 114/123/107 126/136/119 127/137/120 115/124/108
f 115/124/108 127/137/120 128/138/121 116/125/109
f 116/125/109 128/138/121 129/139/122 117/126/110
f 117/126/110 129/139/122 118/127/111 106/114/1
f 118/127/111 130/140/123 131/141/124 119/128/112
f 119/128/112 131/141/124 132/142/125 120/129/113
f 120/129/113 132/142/125 133/143/126 121/130/114
f 121/130/114 133/143/126 134/144/127 122/131/115
f 122/131/115 134/144/127 135/145/128 123/132/116
f 123/132/116 135/145/128 136/146/129 124/133/117
f 124/134/117 136/147/129 137/148/130 125/135/118
f 125/135/118 137/148/130 138/149/131 126/136/119
f 126/136/119 138/149/131 139/150/132 127/137/120
f 127/137/120 139/150/132 140/151/133 128/138/121
f 128/138/121 140/151/133 141/152/134 129/139/122
f 129/139/122 141/152/134 130/140/123 118/127/111
f 130/140/123 142/153/135 143/154/136 131/141/124
f 131/141/124 143/154/136 144/155/137 132/142/125
f 132/142/125 144/155/137 145/156/138 133/143/126
f 133/143/126 145/156/138 146/157/139 134/144/127
f 134/144/127 146/157/139 147/158/140 135/145/128
f 135/145/128 147/158/140 148/159/141 136/146/129
f 136/147/129 148/160/141 149/161/142 137/148/130
f 137/148/130 149/161/142 150/162/143 138/149/131
f 138/149/131 150/162/143 151/163/144 139/150/132
f 139/150/132 151/163/144 152/164/145 140/151/133
f 140/151/133 152/164/145 153/165/146 141/152/134
f 141/152/134 153/165/146 142/153/135 130/140/123
f 142/153/135 154/166/147 155/167/148 143/154/136
f 143/154/136 155/167/148 156/168/149 144/155/137
f 144/155/137 156/168/149 157/169/150 145/156/138
f 145/156/138 157/169/150 158/170/151 146/157/139
f 146/157/139 158/170/151 159/171/152 147/158/140
f 147/158/140 159/171/152 160/172/153 148/159/141
f 148/160/141 160/173/153 161/174/154 149/161/142
f 149/161/142 161/174/154 162/175/155 150/162/143
f 150/162/143 162/175/155 163/176/156 151/163/144
f 151/163/144 163/176/156 164/177/157 152/164/145
f 152/164/145 164/177/157 165/178/158 153/165/146
f 153/165/146 165/178/158 154/166/147 142/153/135
f 154/166/147 166/179/159 167/180/160 155/167/148
f 155/167/148 167/180/160 168/181/161 156/168/149
f 156/168/149 168/181/161 169/182/162 157/169/150
f 157/169/150 169/182/162 170/183/163 158/170/151
f 158/170/151 170/183/163 171/184/164 159/171/152
f 159/171/152 171/184/164 172/185/165 160/172/153
f 160/173/153 172/186/165 173/187/166 161/174/154
f 161/174/154 173/187/166 174/188/167 162/175/155
f 162/175/155 174/188/167 175/189/168 163/176/156
f 163/176/156 175/189/168 176/190/169 164/177/157
f 164/177/157 176/190/169 177/191/170 165/178/158
f 165/178/158 177/191/170 166/179/159 154/166/147
f 166/179/159 10/10/2 11/13/9 167/180/160
f 167/180/160 11/13/9 12/15/11 168/181/161
f 168/181/161 12/15/11 13/17/13 169/182/162
f 169/182/162 13/17/13 14/19/15 170/183/163
f 170/183/163 14/19/15 15/21/17 171/184/164
f 171/184/164 15/21/17 16/23/4 172/185/165
f 172/186/165 16/24/4 17/27/20 173/187/166
f 173/187/166 17/27/20 18/29/22 174/188/167
f 174/188/167 18/29/22 19/31/24 175/189/168
f 175/189/168 19/31/24 20/33/26 176/190/169
f 176/190/169 20/33/26 21/35/28 177/191/170
f 177/191/170 21/35/28 10/10/2 166/179/159
f 58/62/153 69/74/153 68/73/153 67/72/153 66/71/153 65/70/153 64/69/153 63/67/153 62/66/153 61/65/153 60/64/153 59/63/153
f 74/84/74 75/86/76 183/192/171 182/193/172
f 81/100/88 70/75/65 178/194/1 189/195/173
f 71/78/68 72/80/70 180/196/174 179/197/175
f 78/94/82 79/96/84 187/198/5 186/199/176
f 75/86/76 76/88/78 184/200/6 183/192/171
f 72/80/70 73/82/72 181/201/3 180/196/174
f 79/96/84 80/98/86 188/202/177 187/198/5
f 76/89/78 77/92/80 185/203/178 184/204/6
f 73/82/72 74/84/74 182/193/172 181/201/3
f 80/98/86 81/100/88 189/195/173 188/202/177
f 70/75/65 71/78/68 179/197/175 178/194/1
f 77/92/80 78/94/82 186/199/176 185/203/178
