# Blender v2.91.0 OBJ File: 'GamePiece.blend'
# www.blender.org
mtllib GamePiece.mtl
o obj_0
v -0.152000 -0.035413 -0.108900
v 0.152000 -0.035413 -0.108900
v 0.152000 -0.067313 -0.092600
v 0.152000 0.067287 0.092599
v -0.152000 0.035387 0.108900
v 0.152000 0.035387 0.108900
v 0.152000 -0.092613 -0.067300
v -0.152000 -0.067313 -0.092600
v -0.152000 -0.092613 -0.067300
v 0.152000 -0.000013 0.114500
v 0.152000 0.108887 -0.035400
v -0.152000 0.092687 -0.067300
v -0.152000 0.108887 -0.035400
v 0.152000 -0.108913 -0.035400
v -0.152000 -0.114513 0.000000
v -0.152000 -0.108913 -0.035400
v -0.152000 0.108887 0.035400
v -0.152000 0.114487 0.000000
v -0.152000 0.067287 -0.092600
v -0.152000 0.035387 -0.108900
v -0.152000 -0.000013 -0.114500
v 0.152000 -0.000013 -0.114500
v -0.152000 -0.108913 0.035400
v 0.152000 -0.108913 0.035400
v 0.152000 -0.092613 0.067300
v 0.152000 -0.114513 0.000000
v -0.152000 0.067287 0.092599
v -0.152000 0.092687 0.067300
v -0.152000 -0.000013 0.114500
v -0.152000 -0.067313 0.092599
v -0.152000 -0.035413 0.108900
v 0.152000 0.035387 -0.108900
v -0.152000 -0.092613 0.067300
v 0.152000 -0.035413 0.108900
v 0.152000 0.067287 -0.092600
v 0.152000 -0.067313 0.092599
v 0.152000 0.092687 -0.067300
v 0.152000 0.114487 0.000000
v 0.152000 0.108887 0.035400
v 0.152000 0.092687 0.067300
v 0.152000 -0.067313 -0.092600
v 0.152000 -0.092613 -0.067300
v 0.152000 -0.108913 -0.035400
v -0.152000 -0.114513 0.000000
v -0.152000 -0.108913 -0.035400
v -0.152000 0.108887 0.035400
v -0.152000 0.114487 0.000000
v -0.152000 -0.108913 0.035400
v -0.152000 0.035387 0.108900
v -0.152000 0.067287 0.092599
v -0.152000 0.092687 0.067300
v -0.152000 -0.092613 0.067300
v -0.152000 -0.035413 -0.108900
v -0.152000 -0.067313 -0.092600
v 0.152000 0.108887 -0.035400
v 0.152000 0.114487 0.000000
v 0.152000 0.108887 0.035400
v 0.152000 0.092687 0.067300
v -0.152000 -0.000013 -0.114500
v -0.152000 -0.092613 -0.067300
v 0.152000 0.035387 -0.108900
v 0.152000 0.067287 -0.092600
v -0.152000 -0.000013 0.114500
v -0.152000 0.108887 -0.035400
v 0.152000 -0.035413 0.108900
v 0.152000 -0.067313 0.092599
v -0.152000 0.067287 -0.092600
v -0.152000 0.035387 -0.108900
v 0.152000 -0.035413 -0.108900
v 0.152000 0.067287 0.092599
v 0.152000 0.035387 0.108900
v 0.152000 0.092687 -0.067300
v 0.152000 -0.000013 0.114500
v -0.152000 0.092687 -0.067300
v 0.152000 -0.000013 -0.114500
v 0.152000 -0.108913 0.035400
v 0.152000 -0.092613 0.067300
v 0.152000 -0.114513 0.000000
v -0.152000 -0.067313 0.092599
v -0.152000 -0.035413 0.108900
vt 0.294760 0.349211
vt 0.294760 0.818557
vt 0.347380 0.818557
vt 0.652627 0.349211
vt 0.705245 0.818557
vt 0.705245 0.349211
vt 0.402620 0.818557
vt 0.347380 0.349211
vt 0.402620 0.349211
vt 0.750000 0.349211
vt 0.044765 0.818557
vt 0.097278 0.349211
vt 0.044765 0.349211
vt 0.455241 0.818557
vt 0.500001 0.349211
vt 0.455241 0.349211
vt 0.698422 0.202318
vt 0.698422 0.146985
vt 0.681343 0.094352
vt 0.648943 0.049615
vt 0.604107 0.017161
vt 0.551529 0.000000
vt 0.496195 0.000000
vt 0.443563 0.017079
vt 0.398850 0.049631
vt 0.366372 0.094315
vt 0.250000 0.818557
vt 0.250000 0.349211
vt 0.955241 0.818557
vt 0.955241 0.349211
vt 0.902620 0.349211
vt 1.000000 0.818557
vt 1.000000 0.349211
vt 0.648783 0.299580
vt 0.604069 0.332132
vt 0.681413 0.254872
vt 0.551437 0.349211
vt 0.443526 0.332050
vt 0.496104 0.349211
vt 0.205245 0.818557
vt 0.500001 0.818557
vt 0.349211 0.202227
vt 0.349211 0.146893
vt 0.366290 0.254859
vt 0.398842 0.299572
vt 0.794760 0.818557
vt 0.847380 0.818557
vt 0.794760 0.349211
vt 0.152627 0.349211
vt 0.152627 0.818557
vt 0.902620 0.818557
vt 0.847380 0.349211
vt 0.254896 0.332050
vt 0.049639 0.299580
vt 0.202318 0.349211
vt 0.299732 0.299596
vt 0.332132 0.254859
vt 0.349211 0.202226
vt 0.349211 0.146893
vt 0.332202 0.094339
vt 0.299572 0.049631
vt 0.146984 0.349211
vt 0.094352 0.332132
vt 0.097278 0.818557
vt 0.597278 0.349211
vt 0.652627 0.818557
vt 0.254858 0.017079
vt 0.202226 0.000000
vt 0.017161 0.254896
vt 0.146893 0.000000
vt 0.094315 0.017161
vt 0.000000 0.818557
vt 0.000000 0.349211
vt 0.049631 0.049639
vt 0.000000 0.202318
vt 0.017079 0.094352
vt 0.000000 0.146984
vt 0.750000 0.818557
vt 0.500001 0.818557
vt 0.544765 0.818557
vt 0.544765 0.349211
vt 0.500001 0.349211
vt 0.205245 0.349211
vt 0.597278 0.818557
vn 0.0000 -0.3095 -0.9509
vn 0.0000 -0.5882 -0.8086
vn 0.0000 0.5875 0.8092
vn 0.0000 0.3095 0.9509
vn 0.0000 -0.8086 -0.5882
vn 0.0000 0.0000 1.0000
vn 0.0000 0.9513 -0.3083
vn 0.0000 0.8088 -0.5880
vn 0.0000 -0.9509 -0.3095
vn 0.0000 -1.0000 0.0000
vn -1.0000 0.0000 0.0000
vn 0.0000 0.0000 -1.0000
vn 0.0000 -0.9509 0.3095
vn 0.0000 -0.8086 0.5882
vn 0.0000 0.3095 -0.9509
vn 0.0000 -0.3095 0.9509
vn 0.0000 -0.5882 0.8086
vn 0.0000 0.5875 -0.8092
vn 1.0000 0.0000 0.0000
vn 0.0000 0.8088 0.5880
vn 0.0000 1.0000 0.0000
vn 0.0000 0.9513 0.3083
usemtl color_16089887
s 1
f 53/1/1 69/2/1 41/3/2
f 4/4/3 49/5/4 71/6/4
f 41/3/2 42/7/5 54/8/2
f 60/9/5 54/8/2 42/7/5
f 49/5/4 73/10/6 71/6/4
f 11/11/7 74/12/8 64/13/7
f 54/8/2 53/1/1 41/3/2
f 43/14/9 44/15/10 45/16/9
f 46/17/11 47/18/11 13/19/11
f 46/17/11 13/19/11 12/20/11
f 46/17/11 12/20/11 67/21/11
f 46/17/11 67/21/11 68/22/11
f 46/17/11 68/22/11 59/23/11
f 46/17/11 59/23/11 1/24/11
f 46/17/11 1/24/11 8/25/11
f 46/17/11 8/25/11 9/26/11
f 43/14/9 45/16/9 42/7/5
f 60/9/5 42/7/5 45/16/9
f 69/2/1 53/1/1 75/27/12
f 21/28/12 75/27/12 53/1/1
f 48/29/13 76/30/13 77/31/14
f 44/32/10 78/33/10 76/30/13
f 44/32/10 76/30/13 48/29/13
f 50/34/11 46/17/11 5/35/11
f 51/36/11 46/17/11 50/34/11
f 63/37/11 5/35/11 46/17/11
f 79/38/11 80/39/11 46/17/11
f 63/37/11 46/17/11 80/39/11
f 61/40/15 75/27/12 21/28/12
f 43/14/9 78/41/10 44/15/10
f 15/42/11 46/17/11 16/43/11
f 23/44/11 46/17/11 15/42/11
f 52/45/11 46/17/11 23/44/11
f 79/38/11 46/17/11 52/45/11
f 9/26/11 16/43/11 46/17/11
f 31/46/16 30/47/17 65/48/16
f 19/49/18 62/50/18 61/40/15
f 30/47/17 33/51/14 66/52/17
f 35/53/19 3/54/19 32/55/19
f 72/56/19 3/54/19 35/53/19
f 55/57/19 3/54/19 72/56/19
f 56/58/19 3/54/19 55/57/19
f 57/59/19 3/54/19 56/58/19
f 58/60/19 3/54/19 57/59/19
f 70/61/19 3/54/19 58/60/19
f 22/62/19 32/55/19 3/54/19
f 22/62/19 3/54/19 2/63/19
f 74/12/8 37/64/8 62/50/18
f 74/12/8 62/50/18 19/49/18
f 4/4/3 40/65/20 27/66/3
f 6/67/19 10/68/19 7/69/19
f 10/68/19 34/70/19 7/69/19
f 36/71/19 7/69/19 34/70/19
f 74/12/8 11/11/7 37/64/8
f 27/66/3 49/5/4 4/4/3
f 38/72/21 11/11/7 18/73/21
f 64/13/7 18/73/21 11/11/7
f 3/54/19 70/61/19 7/69/19
f 70/61/19 6/67/19 7/69/19
f 25/74/19 7/69/19 36/71/19
f 14/75/19 7/69/19 25/74/19
f 24/76/19 26/77/19 25/74/19
f 14/75/19 25/74/19 26/77/19
f 73/10/6 49/5/4 29/78/6
f 18/79/21 17/80/22 39/81/22
f 18/79/21 39/81/22 38/82/21
f 77/31/14 66/52/17 33/51/14
f 21/28/12 20/83/15 61/40/15
f 33/51/14 48/29/13 77/31/14
f 20/83/15 19/49/18 61/40/15
f 17/80/22 28/84/20 40/65/20
f 17/80/22 40/65/20 39/81/22
f 65/48/16 30/47/17 66/52/17
f 28/84/20 27/66/3 40/65/20
f 31/46/16 65/48/16 29/78/6
f 73/10/6 29/78/6 65/48/16
