# Blender v2.91.0 OBJ File: ''
# www.blender.org
mtllib GhostRobot.mtl
o obj_0
v -1.610860 0.323200 -2.201080
v -1.610860 0.181200 -2.201080
v -2.132300 0.181200 -3.035560
v -2.132300 0.323200 -3.035560
v -2.842960 0.323200 -2.591490
v -2.842960 0.181200 -2.591490
v -2.321520 0.181200 -1.757010
v -2.321520 0.323200 -1.757010
v -1.715580 0.539800 -2.225260
v -1.715580 0.323200 -2.225260
v -2.156480 0.323200 -2.930830
v -2.156480 0.539800 -2.930830
v -2.738240 0.539800 -2.567310
v -2.738240 0.323200 -2.567310
v -2.297340 0.323200 -1.861730
v -2.297340 0.539800 -1.861730
v -1.715580 0.181200 -2.225260
v -1.715580 0.108500 -2.225260
v -2.156480 0.108500 -2.930830
v -2.156480 0.181200 -2.930830
v -2.738240 0.181200 -2.567310
v -2.738240 0.108500 -2.567310
v -2.297340 0.108500 -1.861730
v -2.297340 0.181200 -1.861730
v -1.610860 0.323200 -2.201080
v -1.610860 0.323200 -2.201080
v -1.610860 0.181200 -2.201080
v -1.610860 0.181200 -2.201080
v -2.132300 0.323200 -3.035560
v -2.132300 0.323200 -3.035560
v -2.842960 0.323200 -2.591490
v -2.842960 0.323200 -2.591490
v -2.842960 0.181200 -2.591490
v -2.842960 0.181200 -2.591490
v -2.321520 0.323200 -1.757010
v -2.321520 0.323200 -1.757010
v -1.715580 0.539800 -2.225260
v -1.715580 0.539800 -2.225260
v -1.715580 0.323200 -2.225260
v -1.715580 0.323200 -2.225260
v -2.156480 0.539800 -2.930830
v -2.156480 0.539800 -2.930830
v -2.738240 0.539800 -2.567310
v -2.738240 0.539800 -2.567310
v -2.738240 0.323200 -2.567310
v -2.738240 0.323200 -2.567310
v -2.297340 0.539800 -1.861730
v -2.297340 0.539800 -1.861730
v -1.715580 0.181200 -2.225260
v -1.715580 0.181200 -2.225260
v -1.715580 0.108500 -2.225260
v -1.715580 0.108500 -2.225260
v -2.132300 0.181200 -3.035560
v -2.132300 0.181200 -3.035560
v -2.738240 0.181200 -2.567310
v -2.738240 0.181200 -2.567310
v -2.297340 0.181200 -1.861730
v -2.297340 0.181200 -1.861730
v -2.738240 0.108500 -2.567310
v -2.738240 0.108500 -2.567310
v -2.297340 0.108500 -1.861730
v -2.297340 0.108500 -1.861730
v -2.321520 0.181200 -1.757010
v -2.321520 0.181200 -1.757010
v -2.156480 0.323200 -2.930830
v -2.156480 0.323200 -2.930830
v -2.297340 0.323200 -1.861730
v -2.297340 0.323200 -1.861730
v -2.156480 0.181200 -2.930830
v -2.156480 0.181200 -2.930830
v -2.156480 0.108500 -2.930830
v -2.156480 0.108500 -2.930830
vn 0.8480 0.0000 -0.5299
vn -0.8480 0.0000 0.5299
vn 0.0000 1.0000 0.0000
vn 0.5299 0.0000 0.8480
vn -0.5299 0.0000 -0.8480
vn 0.0000 -1.0000 0.0000
usemtl color_-1036298845
s 1
f 25//1 27//1 53//1
f 25//1 53//1 29//1
f 32//2 33//2 63//2
f 32//2 63//2 35//2
f 37//1 39//1 65//1
f 37//1 65//1 41//1
f 44//2 45//2 67//2
f 44//2 67//2 47//2
f 42//3 43//3 48//3
f 42//3 48//3 38//3
f 16//4 15//4 10//4
f 16//4 10//4 9//4
f 12//5 11//5 14//5
f 12//5 14//5 13//5
f 30//3 66//3 40//3
f 30//3 40//3 1//3
f 36//3 68//3 31//3
f 68//3 46//3 31//3
f 40//3 68//3 36//3
f 40//3 36//3 1//3
f 66//3 30//3 46//3
f 31//3 46//3 30//3
f 50//1 51//1 71//1
f 50//1 71//1 70//1
f 55//2 59//2 61//2
f 55//2 61//2 57//2
f 52//6 23//6 60//6
f 52//6 60//6 19//6
f 17//4 24//4 62//4
f 17//4 62//4 18//4
f 21//5 20//5 72//5
f 21//5 72//5 22//5
f 28//4 26//4 64//4
f 8//4 64//4 26//4
f 69//6 54//6 49//6
f 2//6 49//6 54//6
f 56//6 58//6 6//6
f 7//6 6//6 58//6
f 34//5 5//5 3//5
f 4//5 3//5 5//5
f 2//6 7//6 58//6
f 2//6 58//6 49//6
f 6//6 54//6 56//6
f 69//6 56//6 54//6
