# Blender v2.91.0 OBJ File: ''
# www.blender.org
mtllib Tower.mtl
o obj_0
v 0.688300 0.200000 -3.980780
v 0.732700 0.200000 -3.958080
v 0.408300 0.200000 -3.450080
v 0.408300 1.120000 -3.450080
v 0.027500 1.120000 -4.109880
v 0.653000 1.120000 -4.015980
v 0.910700 0.200000 -4.015980
v 1.170300 0.200000 -3.450280
v 0.875500 0.200000 -3.980780
v 0.933300 1.120000 -4.060380
v 1.551500 1.120000 -4.110280
v 0.910700 1.120000 -4.015980
v 0.831100 0.200000 -3.958080
v 0.875500 1.120000 -3.980780
v 1.170300 1.120000 -3.450280
v 0.831100 1.120000 -3.958080
v 0.622600 1.120000 -4.109580
v 0.630400 1.120000 -4.158780
v 0.688300 1.580000 -4.238380
v 0.408700 1.580000 -4.769880
v 0.732700 1.580000 -4.260980
v 0.688300 0.200000 -4.238380
v 0.408700 0.200000 -4.769880
v 0.732700 0.200000 -4.260980
v 0.781900 1.580000 -4.268780
v 1.170700 1.580000 -4.770080
v 0.831100 1.580000 -4.260980
v 0.688300 1.120000 -4.238380
v 0.653000 1.120000 -4.203180
v 0.408700 1.120000 -4.769880
v 0.781900 0.200000 -4.268780
v 1.170700 0.200000 -4.770080
v 0.831100 0.200000 -4.260980
v 0.875500 1.580000 -4.238380
v 0.910700 1.580000 -4.203180
v 1.170700 1.120000 -4.770080
v 0.781900 1.120000 -4.268780
v 0.408300 0.660000 -3.450080
v 0.688300 0.660000 -3.980780
v 0.732700 0.660000 -3.958080
v 0.933300 1.580000 -4.060380
v 0.941100 1.580000 -4.109580
v 1.551500 1.580000 -4.110280
v 0.027500 0.660000 -4.109880
v 0.653000 0.660000 -4.015980
v 0.875500 0.657000 -3.980780
v 0.630400 2.037000 -4.158780
v 0.622600 1.580000 -4.109580
v 0.630400 1.580000 -4.158780
v 0.933300 0.660000 -4.060380
v 1.551500 0.660000 -4.110280
v 0.910700 0.660000 -4.015980
v 0.875500 0.660000 -3.980780
v 1.170300 0.660000 -3.450280
v 0.653000 1.580000 -4.203180
v 0.653000 2.037000 -4.203180
v 0.831100 0.660000 -3.958080
v 0.875500 0.200000 -4.238380
v 0.910700 0.200000 -4.203180
v 0.941100 0.200000 -4.109580
v 1.551500 0.200000 -4.110280
v 0.933300 0.200000 -4.060380
v 0.688300 0.660000 -4.238380
v 0.408700 0.660000 -4.769880
v 0.732700 0.660000 -4.260980
v 0.933300 0.200000 -4.158780
v 0.653000 0.200000 -4.015980
v 0.781900 0.200000 -3.950280
v 0.781900 0.660000 -4.268780
v 1.170700 0.660000 -4.770080
v 0.831100 0.660000 -4.260980
v 0.653000 0.200000 -4.203180
v 0.630400 0.200000 -4.158780
v 0.027500 0.200000 -4.109880
v 0.622600 0.200000 -4.109580
v 0.630400 0.200000 -4.060380
v 0.875500 0.660000 -4.238380
v 0.910700 0.660000 -4.203180
v 0.941100 0.660000 -4.109580
v 0.941100 0.657000 -4.109580
v 0.933300 0.657000 -4.158780
v 0.630400 0.657000 -4.060380
v 0.027500 0.657000 -4.109880
v 0.653000 0.657000 -4.015980
v 0.875500 1.580000 -3.980780
v 0.910700 1.580000 -4.015980
v 1.170300 1.580000 -3.450280
v 0.933300 1.580000 -4.158780
v 0.933300 0.660000 -4.158780
v 0.408300 1.580000 -3.450080
v 0.781900 1.580000 -3.950280
v 0.831100 1.580000 -3.958080
v 0.910700 0.657000 -4.015980
v 1.551500 0.657000 -4.110280
v 0.933300 0.657000 -4.060380
v 0.781900 0.660000 -3.950280
v 0.732700 0.657000 -3.958080
v 1.170300 0.657000 -3.450280
v 0.027500 1.580000 -4.109880
v 0.630400 1.580000 -4.060380
v 0.831100 0.657000 -3.958080
v 0.781900 0.657000 -3.950280
v 0.622600 0.657000 -4.109580
v 0.408700 0.657000 -4.769880
v 0.653000 0.657000 -4.203180
v 0.630400 2.037000 -4.060380
v 0.027500 2.037000 -4.109880
v 0.653000 2.037000 -4.015980
v 0.688300 0.657000 -4.238380
v 0.732700 0.657000 -4.260980
v 1.170700 0.657000 -4.770080
v 0.781900 0.657000 -4.268780
v 0.831100 2.037000 -3.958080
v 1.170300 2.037000 -3.450280
v 0.875500 2.037000 -3.980780
v 0.622600 2.037000 -4.109580
v 0.408700 2.037000 -4.769880
v 0.688300 2.037000 -4.238380
v 0.732700 2.037000 -4.260980
v 1.170700 2.037000 -4.770080
v 0.781900 2.037000 -4.268780
v 0.630400 0.657000 -4.158780
v 0.941100 2.037000 -4.109580
v 1.551500 2.037000 -4.110280
v 0.933300 2.037000 -4.158780
v 0.910700 1.577000 -4.015980
v 0.831100 2.037000 -4.260980
v 0.875500 2.037000 -4.238380
v 0.910700 2.037000 -4.203180
v 0.875500 1.577000 -3.980780
v 0.933300 2.037000 -4.060380
v 0.910700 2.037000 -4.015980
v 0.831100 1.577000 -3.958080
v 0.781900 2.037000 -3.950280
v 0.732700 2.037000 -3.958080
v 0.408300 2.037000 -3.450080
v 0.688300 2.037000 -3.980780
v 0.781900 1.120000 -3.950280
v 0.732700 1.580000 -3.958080
v 0.653000 0.660000 -4.203180
v 0.630400 0.660000 -4.158780
v 0.622600 0.660000 -4.109580
v 0.630400 0.660000 -4.060380
v 0.831100 0.657000 -4.260980
v 0.875500 0.657000 -4.238380
v 0.910700 0.657000 -4.203180
v 0.875500 1.120000 -4.238380
v 0.831100 1.120000 -4.260980
v 0.910700 1.120000 -4.203180
v 0.933300 1.120000 -4.158780
v 0.941100 1.120000 -4.109580
v 0.408300 0.657000 -3.450080
v 0.688300 0.657000 -3.980780
v 0.732700 1.120000 -4.260980
v 0.630400 1.117000 -4.060380
v 0.027500 1.117000 -4.109880
v 0.653000 1.117000 -4.015980
v 0.910700 1.117000 -4.015980
v 1.551500 1.117000 -4.110280
v 0.933300 1.117000 -4.060380
v 0.688300 1.120000 -3.980780
v 0.732700 1.120000 -3.958080
v 0.875500 1.117000 -3.980780
v 1.170300 1.117000 -3.450280
v 0.630400 1.120000 -4.060380
v 0.831100 1.117000 -3.958080
v 0.781900 1.117000 -3.950280
v 0.622600 1.117000 -4.109580
v 0.408700 1.117000 -4.769880
v 0.653000 1.117000 -4.203180
v 0.630400 1.577000 -4.060380
v 0.027500 1.577000 -4.109880
v 0.653000 1.577000 -4.015980
v 0.688300 1.117000 -4.238380
v 0.622600 1.577000 -4.109580
v 0.732700 1.117000 -4.260980
v 1.170700 1.117000 -4.770080
v 0.781900 1.117000 -4.268780
v 1.551500 1.577000 -4.110280
v 0.933300 1.577000 -4.060380
v 1.170300 1.577000 -3.450280
v 0.688300 1.577000 -4.238380
v 0.732700 1.577000 -4.260980
v 0.408700 1.577000 -4.769880
v 0.941100 1.117000 -4.109580
v 0.933300 1.117000 -4.158780
v 0.781900 1.577000 -4.268780
v 0.653000 1.577000 -4.203180
v 1.170700 1.577000 -4.770080
v 0.831100 1.117000 -4.260980
v 0.875500 1.117000 -4.238380
v 0.910700 1.117000 -4.203180
v 0.875500 1.577000 -4.238380
v 0.831100 1.577000 -4.260980
v 0.408300 1.117000 -3.450080
v 0.732700 1.117000 -3.958080
v 0.688300 1.117000 -3.980780
v 0.941100 1.577000 -4.109580
v 0.933300 1.577000 -4.158780
v 0.630400 1.117000 -4.158780
v 0.688300 1.580000 -3.980780
v 0.653000 1.580000 -4.015980
v 0.910700 1.577000 -4.203180
v 0.630400 1.577000 -4.158780
v 0.408300 1.577000 -3.450080
v 0.781900 1.577000 -3.950280
v 0.732700 1.577000 -3.958080
v 0.688300 1.577000 -3.980780
v 0.688300 0.200000 -3.980780
v 0.732700 0.200000 -3.958080
v 0.875500 0.200000 -3.980780
v 0.831100 0.200000 -3.958080
v 0.622600 1.120000 -4.109580
v 0.630400 1.120000 -4.158780
v 0.781900 1.580000 -4.268780
v 0.831100 1.580000 -4.260980
v 0.875500 2.037000 -3.980780
v 0.910700 2.037000 -4.015980
v 0.933300 1.580000 -4.060380
v 0.941100 1.580000 -4.109580
v 0.630400 1.580000 -4.158780
v 0.653000 1.580000 -4.203180
v 0.831100 0.200000 -4.260980
v 0.875500 0.200000 -4.238380
v 0.653000 0.200000 -4.015980
v 0.732700 0.660000 -4.260980
v 0.781900 0.660000 -4.268780
v 0.630400 0.200000 -4.158780
v 0.622600 0.200000 -4.109580
v 0.910700 1.580000 -4.015980
v 0.831100 0.660000 -3.958080
v 0.781900 0.660000 -3.950280
v 0.732700 0.657000 -3.958080
v 0.781900 0.657000 -3.950280
v 0.653000 0.657000 -4.203180
v 0.688300 0.657000 -4.238380
v 0.831100 2.037000 -3.958080
v 0.781900 2.037000 -4.268780
v 0.831100 2.037000 -4.260980
v 0.781900 2.037000 -3.950280
v 0.875500 0.657000 -4.238380
v 0.910700 0.657000 -4.203180
v 0.688300 0.657000 -3.980780
v 0.688300 1.120000 -3.980780
v 0.732700 1.120000 -3.958080
v 0.630400 1.120000 -4.060380
v 0.408700 1.117000 -4.769880
v 0.408700 1.117000 -4.769880
v 1.170700 1.117000 -4.770080
v 1.170700 1.117000 -4.770080
v 0.941100 1.117000 -4.109580
v 0.933300 1.117000 -4.158780
v 0.875500 1.577000 -4.238380
v 0.831100 1.577000 -4.260980
v 0.688300 1.580000 -3.980780
v 0.653000 1.580000 -4.015980
v 0.910700 1.577000 -4.203180
v 0.027500 0.200000 -4.109880
v 0.027500 0.200000 -4.109880
v 0.027500 0.657000 -4.109880
v 0.027500 0.657000 -4.109880
v 0.933300 1.120000 -4.060380
v 0.910700 1.120000 -4.015980
v 0.653000 1.120000 -4.203180
v 0.875500 1.580000 -4.238380
v 0.910700 1.580000 -4.203180
v 0.933300 0.660000 -4.060380
v 0.910700 0.660000 -4.015980
v 0.910700 0.200000 -4.203180
v 0.781900 0.200000 -3.950280
v 0.941100 0.660000 -4.109580
v 0.630400 0.657000 -4.060380
v 0.653000 0.657000 -4.015980
v 0.933300 1.580000 -4.158780
v 0.408300 1.580000 -3.450080
v 0.408300 1.580000 -3.450080
v 0.027500 1.580000 -4.109880
v 0.027500 1.580000 -4.109880
v 0.622600 0.657000 -4.109580
v 0.630400 2.037000 -4.060380
v 0.653000 2.037000 -4.015980
v 0.622600 2.037000 -4.109580
v 1.170700 1.580000 -4.770080
v 1.170700 1.580000 -4.770080
v 1.170700 2.037000 -4.770080
v 1.170700 2.037000 -4.770080
v 0.875500 1.120000 -4.238380
v 0.910700 1.120000 -4.203180
v 1.170300 2.037000 -3.450280
v 1.170300 2.037000 -3.450280
v 1.551500 2.037000 -4.110280
v 1.551500 2.037000 -4.110280
v 0.875500 1.577000 -3.980780
v 0.831100 1.577000 -3.958080
v 0.408300 2.037000 -3.450080
v 0.408300 2.037000 -3.450080
v 0.941100 1.120000 -4.109580
v 1.170300 0.657000 -3.450280
v 1.170300 0.657000 -3.450280
v 0.408300 0.657000 -3.450080
v 0.408300 0.657000 -3.450080
v 0.781900 1.120000 -3.950280
v 0.653000 1.117000 -4.203180
v 0.688300 1.117000 -4.238380
v 0.781900 1.117000 -4.268780
v 0.831100 1.117000 -4.260980
v 0.910700 1.117000 -4.203180
v 0.408700 1.120000 -4.769880
v 0.408700 1.120000 -4.769880
v 0.408700 1.577000 -4.769880
v 0.408700 1.577000 -4.769880
v 0.630400 1.117000 -4.158780
v 0.408300 0.200000 -3.450080
v 0.408300 0.200000 -3.450080
v 1.170300 0.200000 -3.450280
v 1.170300 0.200000 -3.450280
v 1.551500 1.120000 -4.110280
v 1.551500 1.120000 -4.110280
v 1.170300 1.120000 -3.450280
v 1.170300 1.120000 -3.450280
v 0.688300 1.580000 -4.238380
v 0.732700 1.580000 -4.260980
v 1.170700 1.120000 -4.770080
v 1.170700 1.120000 -4.770080
v 1.551500 0.660000 -4.110280
v 1.551500 0.660000 -4.110280
v 1.170300 0.660000 -3.450280
v 1.170300 0.660000 -3.450280
v 0.933300 0.200000 -4.158780
v 1.170700 0.660000 -4.770080
v 1.170700 0.660000 -4.770080
v 0.630400 0.200000 -4.060380
v 0.875500 1.117000 -3.980780
v 0.831100 1.117000 -3.958080
v 1.551500 1.580000 -4.110280
v 1.551500 1.580000 -4.110280
v 1.170300 1.580000 -3.450280
v 1.170300 1.580000 -3.450280
v 0.781900 1.580000 -3.950280
v 0.831100 1.580000 -3.958080
v 0.408700 0.657000 -4.769880
v 0.408700 0.657000 -4.769880
v 0.027500 2.037000 -4.109880
v 0.027500 2.037000 -4.109880
v 0.408700 2.037000 -4.769880
v 0.408700 2.037000 -4.769880
v 0.941100 2.037000 -4.109580
v 0.933300 2.037000 -4.158780
v 0.933300 2.037000 -4.060380
v 0.732700 1.580000 -3.958080
v 0.831100 1.120000 -4.260980
v 0.630400 1.117000 -4.060380
v 0.653000 1.117000 -4.015980
v 1.551500 1.117000 -4.110280
v 1.551500 1.117000 -4.110280
v 0.630400 2.037000 -4.158780
v 0.653000 2.037000 -4.203180
v 0.622600 1.117000 -4.109580
v 0.630400 1.577000 -4.060380
v 0.653000 1.577000 -4.015980
v 0.622600 1.577000 -4.109580
v 1.551500 1.577000 -4.110280
v 1.551500 1.577000 -4.110280
v 1.170300 1.577000 -3.450280
v 1.170300 1.577000 -3.450280
v 0.781900 1.577000 -4.268780
v 1.170300 1.117000 -3.450280
v 1.170300 1.117000 -3.450280
v 0.408300 1.120000 -3.450080
v 0.408300 1.120000 -3.450080
v 0.027500 1.120000 -4.109880
v 0.027500 1.120000 -4.109880
v 0.875500 1.120000 -3.980780
v 0.408700 1.580000 -4.769880
v 0.408700 1.580000 -4.769880
v 0.408300 1.577000 -3.450080
v 0.408300 1.577000 -3.450080
v 0.688300 1.120000 -4.238380
v 0.875500 0.660000 -3.980780
v 0.941100 0.200000 -4.109580
v 0.933300 0.200000 -4.060380
v 0.027500 0.660000 -4.109880
v 0.027500 0.660000 -4.109880
v 0.408700 0.660000 -4.769880
v 0.408700 0.660000 -4.769880
v 1.170700 1.577000 -4.770080
v 1.170700 1.577000 -4.770080
v 0.688300 1.577000 -3.980780
v 0.688300 2.037000 -3.980780
v 0.653000 0.660000 -4.203180
v 0.630400 0.660000 -4.158780
v 0.732700 1.120000 -4.260980
v 0.027500 1.117000 -4.109880
v 0.027500 1.117000 -4.109880
v 0.027500 1.577000 -4.109880
v 0.027500 1.577000 -4.109880
v 0.408300 1.117000 -3.450080
v 0.408300 1.117000 -3.450080
v 0.732700 1.117000 -3.958080
v 0.688300 1.117000 -3.980780
v 0.933300 1.577000 -4.060380
v 0.941100 1.577000 -4.109580
v 0.653000 1.577000 -4.203180
v 0.630400 1.577000 -4.158780
v 0.781900 1.577000 -3.950280
v 0.831100 0.660000 -4.260980
v 0.875500 0.660000 -4.238380
v 0.910700 0.660000 -4.203180
v 0.875500 1.580000 -3.980780
v 0.910700 0.657000 -4.015980
v 0.933300 0.657000 -4.060380
v 0.831100 0.657000 -3.958080
v 1.551500 0.200000 -4.110280
v 1.551500 0.200000 -4.110280
v 0.732700 0.657000 -4.260980
v 0.910700 2.037000 -4.203180
v 0.622600 0.660000 -4.109580
v 0.653000 0.660000 -4.015980
v 0.630400 0.660000 -4.060380
v 0.781900 1.120000 -4.268780
v 0.933300 1.120000 -4.158780
v 0.831100 1.120000 -3.958080
v 0.688300 0.200000 -4.238380
v 0.732700 0.200000 -4.260980
v 0.408300 0.660000 -3.450080
v 0.408300 0.660000 -3.450080
v 0.653000 0.200000 -4.203180
v 0.933300 0.660000 -4.158780
v 0.933300 0.657000 -4.158780
v 0.875500 0.657000 -3.980780
v 1.551500 0.657000 -4.110280
v 1.551500 0.657000 -4.110280
v 1.170700 0.657000 -4.770080
v 1.170700 0.657000 -4.770080
v 0.781900 0.657000 -4.268780
v 0.688300 2.037000 -4.238380
v 0.732700 2.037000 -4.260980
v 0.910700 1.577000 -4.015980
v 0.732700 2.037000 -3.958080
v 0.910700 1.117000 -4.015980
v 0.933300 1.117000 -4.060380
v 0.653000 1.120000 -4.015980
v 0.630400 0.657000 -4.158780
v 0.781900 1.117000 -3.950280
v 0.732700 1.117000 -4.260980
v 0.688300 1.577000 -4.238380
v 0.732700 1.577000 -4.260980
v 0.875500 1.117000 -4.238380
v 0.933300 1.577000 -4.158780
v 0.732700 1.577000 -3.958080
v 0.910700 0.200000 -4.015980
v 0.630400 1.580000 -4.060380
v 0.781900 0.200000 -4.268780
v 1.170700 0.200000 -4.770080
v 1.170700 0.200000 -4.770080
v 0.688300 0.660000 -3.980780
v 0.732700 0.660000 -3.958080
v 0.688300 0.660000 -4.238380
v 0.408700 0.200000 -4.769880
v 0.408700 0.200000 -4.769880
v 0.875500 2.037000 -4.238380
v 0.622600 1.580000 -4.109580
v 0.941100 0.657000 -4.109580
v 0.831100 0.657000 -4.260980
vn 0.0000 -1.0000 0.0000
vn -0.5883 0.0000 -0.8086
vn -0.8091 0.0000 -0.5876
vn 0.9511 0.0000 0.3089
vn 1.0000 0.0000 0.0000
vn 0.8087 0.0000 0.5882
vn 0.5870 0.0000 0.8095
vn -1.0000 0.0000 0.0000
vn -0.9511 0.0000 0.3089
vn 0.0000 1.0000 0.0000
vn 0.3097 0.0000 -0.9508
vn 0.5878 0.0000 -0.8090
vn 0.8087 0.0000 -0.5882
vn 0.9511 0.0000 -0.3089
vn -0.9511 0.0000 -0.3089
vn -0.3097 0.0000 -0.9508
vn 0.0000 0.0000 -1.0000
vn 0.3089 0.0000 0.9511
vn 0.0000 0.0000 1.0000
vn -0.3089 0.0000 0.9511
vn -0.8091 0.0000 0.5876
vn -0.5876 0.0000 0.8091
vn 0.8659 0.0000 0.5001
vn 0.8661 0.0000 -0.4999
vn -0.0002 0.0000 -1.0000
vn -0.8659 0.0000 -0.5001
vn -0.8661 0.0000 0.4999
vn 0.0002 0.0000 1.0000
usemtl color_15277357
s 1
f 209//1 210//1 313//1
f 369//1 371//1 442//1
f 451//1 315//1 211//1
f 262//1 317//1 263//1
f 212//1 211//1 315//1
f 14//1 319//1 422//1
f 213//1 371//1 214//1
f 321//1 374//1 322//1
f 423//1 459//1 424//1
f 215//1 283//1 216//1
f 378//1 264//1 309//1
f 31//1 455//1 223//1
f 265//1 283//1 266//1
f 309//1 323//1 420//1
f 425//1 39//1 457//1
f 219//1 220//1 335//1
f 425//1 382//1 418//1
f 418//1 39//1 425//1
f 9//2 430//2 7//3
f 47//4 462//5 221//4
f 267//1 325//1 268//1
f 379//1 268//1 328//1
f 222//6 357//6 221//4
f 231//1 379//1 328//1
f 19//7 357//6 222//6
f 224//1 455//1 269//1
f 380//1 413//1 381//1
f 455//1 224//1 223//1
f 424//1 459//1 31//1
f 455//1 31//1 459//1
f 458//1 384//1 226//1
f 381//1 413//1 451//1
f 66//1 413//1 380//1
f 413//1 269//1 455//1
f 66//1 269//1 413//1
f 315//1 451//1 413//1
f 225//1 209//1 313//1
f 210//1 270//1 313//1
f 315//1 313//1 270//1
f 270//1 212//1 315//1
f 227//1 330//1 71//1
f 459//1 423//1 427//1
f 228//1 258//1 427//1
f 229//1 332//1 258//1
f 332//1 225//1 258//1
f 313//1 258//1 225//1
f 229//1 258//1 228//1
f 459//1 427//1 258//1
f 407//1 330//1 408//1
f 271//1 325//1 267//1
f 463//8 81//9 60//8
f 330//1 407//1 71//1
f 226//1 384//1 227//1
f 330//1 227//1 384//1
f 283//1 265//1 216//1
f 322//1 374//1 215//1
f 283//1 215//1 374//1
f 272//10 261//10 84//10
f 409//1 230//1 337//1
f 219//1 335//1 230//1
f 337//1 230//1 335//1
f 335//1 220//1 88//1
f 335//1 266//1 283//1
f 88//1 266//1 335//1
f 89//1 325//1 271//1
f 325//1 408//1 330//1
f 89//1 408//1 325//1
f 328//1 268//1 325//1
f 337//1 275//1 339//1
f 337//1 339//1 340//1
f 340//1 409//1 337//1
f 410//10 431//10 411//10
f 232//1 425//1 457//1
f 328//1 425//1 232//1
f 232//1 231//1 328//1
f 233//11 2//11 1//12
f 46//10 298//10 410//10
f 374//1 321//1 55//1
f 49//1 277//1 55//1
f 48//1 277//1 49//1
f 48//1 452//1 277//1
f 374//1 55//1 277//1
f 273//13 1//12 67//13
f 412//10 234//10 298//10
f 76//14 273//13 67//13
f 279//10 261//10 272//10
f 341//10 261//10 235//10
f 280//10 343//10 281//10
f 236//10 341//10 235//10
f 415//10 341//10 236//10
f 93//3 62//15 7//3
f 433//10 341//10 112//10
f 237//10 289//10 217//10
f 430//2 9//2 13//16
f 282//10 343//10 280//10
f 102//17 13//16 68//17
f 345//10 343//10 56//10
f 80//10 431//10 429//10
f 118//10 345//10 56//10
f 437//10 345//10 118//10
f 285//10 345//10 121//10
f 443//4 75//5 73//4
f 123//10 292//10 348//10
f 12//3 126//3 10//15
f 24//18 110//18 22//7
f 239//10 285//10 121//10
f 128//10 285//10 239//10
f 129//10 285//10 128//10
f 348//10 292//10 129//10
f 437//10 121//10 345//10
f 126//3 12//3 373//2
f 126//3 373//2 293//2
f 24//18 453//19 110//18
f 435//19 110//18 453//19
f 285//10 129//10 292//10
f 292//10 123//10 131//10
f 292//10 131//10 218//10
f 218//10 217//10 289//10
f 292//10 218//10 289//10
f 294//16 293//2 16//16
f 373//2 16//16 293//2
f 289//10 237//10 240//10
f 439//10 295//10 240//10
f 281//10 295//10 137//10
f 439//10 137//10 295//10
f 289//10 240//10 295//10
f 138//17 294//16 16//16
f 33//20 435//19 453//19
f 282//10 356//10 343//10
f 356//10 56//10 343//10
f 295//10 281//10 343//10
f 91//17 139//11 134//17
f 384//1 458//1 390//1
f 391//1 382//1 390//1
f 417//1 419//1 382//1
f 419//1 418//1 382//1
f 417//1 382//1 391//1
f 384//1 390//1 382//1
f 144//10 433//10 112//10
f 241//10 433//10 144//10
f 242//10 433//10 241//10
f 429//10 431//10 242//10
f 415//10 112//10 341//10
f 287//1 351//1 323//1
f 288//1 317//1 150//1
f 433//10 242//10 431//10
f 431//10 80//10 411//10
f 297//1 317//1 262//1
f 300//10 298//10 234//10
f 97//10 300//10 234//10
f 84//10 300//10 243//10
f 97//10 243//10 300//10
f 46//10 412//10 298//10
f 431//10 410//10 298//10
f 288//1 287//1 323//1
f 351//1 420//1 323//1
f 154//1 309//1 420//1
f 352//10 393//10 157//10
f 150//1 317//1 297//1
f 317//1 288//1 323//1
f 319//1 263//1 317//1
f 59//21 146//21 58//22
f 158//10 355//10 160//10
f 244//1 245//1 369//1
f 245//1 302//1 369//1
f 319//1 369//1 302//1
f 302//1 422//1 319//1
f 14//1 263//1 319//1
f 146//21 59//21 81//9
f 349//15 41//15 86//3
f 163//10 367//10 158//10
f 154//1 378//1 309//1
f 214//1 371//1 264//1
f 309//1 264//1 371//1
f 246//1 442//1 371//1
f 213//1 246//1 371//1
f 329//9 60//8 81//9
f 166//10 167//10 367//10
f 85//2 92//16 113//16
f 358//10 393//10 352//10
f 113//16 92//16 134//17
f 91//17 134//17 92//16
f 68//17 233//11 102//17
f 247//10 393//10 303//10
f 359//10 395//10 173//10
f 116//5 100//14 462//5
f 304//10 247//10 303//10
f 233//11 1//12 153//12
f 175//10 395//10 359//10
f 445//10 247//10 304//10
f 153//12 1//12 273//13
f 249//10 247//10 305//10
f 438//10 362//10 180//10
f 221//4 357//6 47//4
f 130//10 364//10 438//10
f 76//14 82//14 273//13
f 19//7 436//7 357//6
f 133//10 364//10 130//10
f 119//18 436//7 21//18
f 95//15 463//8 62//15
f 25//19 238//19 21//18
f 119//18 21//18 238//19
f 279//10 122//10 261//10
f 122//10 235//10 261//10
f 300//10 84//10 261//10
f 27//20 238//19 25//19
f 182//10 183//10 311//10
f 432//23 316//23 414//23
f 185//10 355//10 252//10
f 299//23 316//23 432//23
f 183//10 187//10 311//10
f 403//10 182//10 311//10
f 454//24 434//24 94//24
f 454//24 94//24 61//24
f 386//10 311//10 187//10
f 23//25 111//25 32//25
f 306//10 249//10 305//10
f 448//10 249//10 306//10
f 307//10 249//10 448//10
f 252//10 355//10 307//10
f 445//10 305//10 247//10
f 253//10 386//10 254//10
f 111//25 23//25 342//25
f 460//26 259//26 260//26
f 460//26 260//26 104//26
f 249//10 307//10 355//10
f 160//10 355//10 185//10
f 83//27 74//27 314//27
f 83//27 314//27 301//27
f 3//28 8//28 152//28
f 98//28 152//28 8//28
f 398//10 367//10 167//10
f 399//10 398//10 167//10
f 157//10 398//10 400//10
f 399//10 400//10 398//10
f 163//10 166//10 367//10
f 355//10 158//10 367//10
f 198//10 362//10 199//10
f 2//11 233//11 68//17
f 358//10 312//10 393//10
f 312//10 303//10 393//10
f 398//10 157//10 393//10
f 354//23 54//23 326//23
f 95//15 62//15 93//3
f 368//23 54//23 354//23
f 290//23 336//23 124//23
f 331//24 250//24 159//24
f 331//24 159//24 51//24
f 336//23 290//23 87//23
f 93//3 7//3 430//2
f 64//25 177//25 70//25
f 284//24 286//24 291//24
f 284//24 291//24 43//24
f 20//25 120//25 26//25
f 430//2 13//16 101//16
f 177//25 64//25 248//25
f 385//26 383//26 394//26
f 385//26 394//26 169//26
f 120//25 20//25 346//25
f 101//16 13//16 102//17
f 156//27 44//27 426//27
f 156//27 426//27 195//27
f 375//26 99//26 107//26
f 375//26 107//26 117//26
f 344//27 278//27 276//27
f 344//27 276//27 296//27
f 38//28 327//28 397//28
f 164//28 397//28 327//28
f 90//28 338//28 136//28
f 114//28 136//28 338//28
f 103//5 82//14 75//5
f 76//14 75//5 82//14
f 135//11 134//17 139//11
f 103//5 75//5 443//4
f 135//11 139//11 255//12
f 72//6 105//6 443//4
f 73//4 72//6 443//4
f 256//13 108//13 255//12
f 353//13 456//12 45//13
f 108//13 256//13 100//14
f 105//6 72//6 109//7
f 22//7 109//7 72//6
f 143//14 155//14 45//13
f 353//13 45//13 155//14
f 110//18 109//7 22//7
f 143//14 142//5 155//14
f 349//15 42//8 41//15
f 33//20 464//20 435//19
f 58//22 145//22 464//20
f 58//22 464//20 33//20
f 440//3 441//15 52//3
f 50//15 52//3 441//15
f 135//11 255//12 389//12
f 145//22 58//22 146//21
f 440//3 52//3 53//2
f 389//12 255//12 108//13
f 100//14 106//14 108//13
f 329//9 81//9 59//21
f 116//5 106//14 100//14
f 463//8 60//8 62//15
f 168//5 155//14 142//5
f 349//15 86//3 132//3
f 141//4 200//4 142//5
f 85//2 115//2 86//3
f 132//3 86//3 115//2
f 115//2 85//2 113//16
f 65//18 176//18 63//7
f 47//4 116//5 462//5
f 65//18 69//19 176//18
f 178//19 176//18 69//19
f 406//20 178//19 69//19
f 19//7 21//18 436//7
f 78//21 192//21 77//22
f 27//20 127//20 238//19
f 192//21 78//21 428//9
f 34//22 461//22 127//20
f 34//22 127//20 27//20
f 428//9 79//8 251//8
f 35//21 416//21 34//22
f 461//22 34//22 416//21
f 50//15 441//15 79//8
f 416//21 35//21 274//9
f 416//21 274//9 125//9
f 196//11 444//17 40//11
f 96//17 40//11 444//17
f 42//8 347//8 274//9
f 125//9 274//9 347//8
f 196//11 40//11 456//12
f 196//11 456//12 197//12
f 347//8 42//8 349//15
f 254//10 386//10 187//10
f 257//10 386//10 253//10
f 199//10 362//10 257//10
f 18//4 204//4 17//5
f 386//10 257//10 362//10
f 180//10 362//10 198//10
f 204//4 18//4 188//6
f 29//6 188//6 18//4
f 377//10 364//10 206//10
f 207//10 377//10 206//10
f 208//10 377//10 207//10
f 173//10 377//10 208//10
f 133//10 206//10 364//10
f 362//10 438//10 364//10
f 28//7 446//7 188//6
f 28//7 188//6 29//6
f 404//10 403//10 395//10
f 311//10 395//10 403//10
f 175//10 404//10 395//10
f 377//10 173//10 395//10
f 363//23 320//23 318//23
f 365//23 320//23 363//23
f 446//7 28//7 447//18
f 392//18 447//18 28//7
f 324//24 387//24 179//24
f 324//24 179//24 11//24
f 366//19 447//18 392//18
f 366//19 392//18 37//19
f 308//25 189//25 36//25
f 189//25 308//25 310//25
f 30//26 372//26 172//26
f 30//26 172//26 184//26
f 148//20 366//19 37//19
f 396//27 5//27 370//27
f 396//27 370//27 376//27
f 4//28 15//28 205//28
f 181//28 205//28 15//28
f 149//21 203//21 147//22
f 203//21 149//21 421//9
f 402//8 449//9 151//8
f 402//8 151//8 10//15
f 450//11 405//17 162//11
f 138//17 162//11 405//17
f 450//11 162//11 161//12
f 450//11 161//12 388//12
f 197//12 456//12 353//13
f 6//13 360//13 161//12
f 388//12 161//12 360//13
f 165//14 171//14 360//13
f 165//14 360//13 6//13
f 17//5 361//5 165//14
f 401//15 10//15 126//3
f 53//2 333//2 440//3
f 333//2 53//2 57//16
f 333//2 57//16 334//16
f 96//17 444//17 57//16
f 334//16 57//16 444//17
f 138//17 405//17 294//16
f 171//14 165//14 361//5
f 168//5 142//5 200//4
f 204//4 361//5 17//5
f 140//6 170//6 200//4
f 141//4 140//6 200//4
f 170//6 140//6 174//7
f 63//7 174//7 140//6
f 176//18 174//7 63//7
f 406//20 190//20 178//19
f 148//20 194//20 366//19
f 77//22 191//22 190//20
f 77//22 190//20 406//20
f 147//22 193//22 194//20
f 147//22 194//20 148//20
f 191//22 77//22 192//21
f 193//22 147//22 203//21
f 192//21 428//9 186//9
f 421//9 449//9 203//21
f 186//9 428//9 251//8
f 421//9 151//8 449//9
f 79//8 441//15 251//8
f 402//8 10//15 401//15
f 339//1 275//1 350//1
f 275//1 201//1 350//1
f 369//1 442//1 244//1
f 275//1 277//1 202//1
f 202//1 201//1 275//1
f 452//1 202//1 277//1
